<?xml version="1.0" encoding="UTF-8" standalone="no"?>
<svg
   xmlns:dc="http://purl.org/dc/elements/1.1/"
   xmlns:cc="http://creativecommons.org/ns#"
   xmlns:rdf="http://www.w3.org/1999/02/22-rdf-syntax-ns#"
   xmlns:svg="http://www.w3.org/2000/svg"
   xmlns="http://www.w3.org/2000/svg"
   xmlns:sodipodi="http://sodipodi.sourceforge.net/DTD/sodipodi-0.dtd"
   xmlns:inkscape="http://www.inkscape.org/namespaces/inkscape"
   sodipodi:docname="luvio.svg"
   inkscape:export-ydpi="96"
   inkscape:export-xdpi="96"
   inkscape:version="1.1-dev (bc69992, 2020-04-15)"
   id="svg8"
   version="1.1"
   viewBox="0 0 210 297"
   height="297mm"
   width="210mm">
  <sodipodi:namedview
     inkscape:current-layer="letter-o"
     inkscape:window-maximized="0"
     inkscape:window-y="23"
     inkscape:window-x="0"
     inkscape:cy="561.25984"
     inkscape:cx="396.85039"
     inkscape:zoom="0.64943182"
     showgrid="false"
     id="namedview83"
     inkscape:window-height="937"
     inkscape:window-width="1680"
     inkscape:pageshadow="2"
     inkscape:pageopacity="0"
     guidetolerance="10"
     gridtolerance="10"
     objecttolerance="10"
     borderopacity="1"
     bordercolor="#666666"
     pagecolor="#ffffff" />
  <defs
     id="defs2" />
  <metadata
     id="metadata5">
    <rdf:RDF>
      <cc:Work
         rdf:about="">
        <dc:format>image/svg+xml</dc:format>
        <dc:type
           rdf:resource="http://purl.org/dc/dcmitype/StillImage" />
        <dc:title />
      </cc:Work>
    </rdf:RDF>
  </metadata>
  <g
     id="layer1"
     inkscape:groupmode="layer"
     inkscape:label="Layer 1">
    <path
       d="M 5e-7,99.999999 H 10 V 5e-7 H 5e-7 Z"
       style="stroke-width:0;fill:#78ba82;"
       id="letter-l" />
    <path
       id="letter-u"
       d="m 20,50 v 30 a 20 20 0 0 0 40 0  v -30 h -10  v 30  a 10 10 0 0 1 -20 0  v -30 z"
       style="stroke-width:0;fill:#78ba82;" />
    <path
       d="m 67.500001,50 20,50 H 97.5 l 20,-50 h -10 l -14.999999,38 -15,-38 z"
       style="stroke-width:0;fill:#78ba82;"
       id="letter-v" />
    <g
       id="letter-i">
      <path
         style="stroke-width:0;fill:#78ba82;"
         d="m 125,100 h 10 V 50 h -10 z"
         id="letter-i-base" />
      <path
         d="m 136.00014,38.5 v -8 l -7.19,3.51 a 5,5 0 1 0 7.19,4.49 z"
         style="fill:#7cb6df;stroke-width:0;"
         id="letter-i-rain-drop" />
    </g>
    <g
       id="letter-o">
      <ellipse
         ry="25"
         rx="25"
         cy="76.284248"
         cx="167"
         id="letter-o-full"
         style="stroke-width:0.264583;fill:#78BA82;" />
      <path
         style="fill:#3a91cf;stroke:#000000;stroke-width:0;stroke-linecap:butt;stroke-linejoin:miter;stroke-opacity:1"
         d="M 177.00312,80.457015 V 60.457293 l -17.97474,8.774878 a 12.499827,12.499827 0 1 0 17.97474,11.224844 z"
         id="letter-o-rain-drop" />
    </g>
    <path
       style="fill:#7cb6df;stroke:#000000;stroke-width:0;stroke-linecap:butt;stroke-linejoin:miter;stroke-opacity:1"
       d="m 47.000137,40.000001 v -8 l -7.19,3.51 a 5.0000001,5.0000001 0 1 0 7.19,4.49 z"
       id="letter-u-rain-drop" />
  </g>
</svg>
