<?xml version="1.0" encoding="UTF-8" standalone="no"?>
<svg
   xmlns:dc="http://purl.org/dc/elements/1.1/"
   xmlns:cc="http://creativecommons.org/ns#"
   xmlns:rdf="http://www.w3.org/1999/02/22-rdf-syntax-ns#"
   xmlns:svg="http://www.w3.org/2000/svg"
   xmlns="http://www.w3.org/2000/svg"
   xmlns:sodipodi="http://sodipodi.sourceforge.net/DTD/sodipodi-0.dtd"
   xmlns:inkscape="http://www.inkscape.org/namespaces/inkscape"
   inkscape:export-ydpi="96"
   inkscape:export-xdpi="96"
   inkscape:export-filename="/Users/seanny/engineering/projects/luvio-app/assets/images/luvio.png"
   width="193mm"
   height="100mm"
   viewBox="0 0 193 100"
   version="1.1"
   id="svg32"
   inkscape:version="1.1-dev (bc69992, 2020-04-15)"
   sodipodi:docname="luvio-redo.svg">
  <defs
     id="defs26" />
  <sodipodi:namedview
     id="base"
     pagecolor="#ffffff"
     bordercolor="#666666"
     borderopacity="1.0"
     inkscape:pageopacity="0.0"
     inkscape:pageshadow="2"
     inkscape:zoom="0.35"
     inkscape:cx="352.85714"
     inkscape:cy="560"
     inkscape:document-units="mm"
     inkscape:current-layer="layer1"
     showgrid="false"
     inkscape:window-width="1252"
     inkscape:window-height="938"
     inkscape:window-x="0"
     inkscape:window-y="23"
     inkscape:window-maximized="0" />
  <metadata
     id="metadata29">
    <rdf:RDF>
      <cc:Work
         rdf:about="">
        <dc:format>image/svg+xml</dc:format>
        <dc:type
           rdf:resource="http://purl.org/dc/dcmitype/StillImage" />
        <dc:title />
      </cc:Work>
    </rdf:RDF>
  </metadata>
  <g
     inkscape:label="Layer 1"
     inkscape:groupmode="layer"
     id="layer1">
    <path
       id="letter-l"
       style="stroke-width:0;fill:#78ba82;"
       d="M 0,100 H 10 V 0 H 0 Z" />
    <path
       style="stroke-width:0;fill:#78ba82;"
       d="m 20,50 v 30 a 20 20 0 0 0 40 0  v -30 h -10  v 30  a 10 10 0 0 1 -20 0  v -30 z"
       id="letter-u" />
    <path
       id="letter-u-rain-drop"
       d="m 47.000137,40 v -8 l -7.19,3.51 a 5,5 0 1 0 7.19,4.49 z"
       style="fill:#7cb6df;stroke:#000000;stroke-width:0;stroke-linecap:butt;stroke-linejoin:miter;stroke-opacity:1" />
    <path
       id="letter-v"
       style="stroke-width:0;fill:#78ba82;"
       d="m 67.5,50 20,50 H 97.5 l 20,-50 h -10 l -15,38 -15,-38 z" />
    <path
       id="letter-i-base"
       d="m 125,100 h 10 V 50 h -10 z"
       style="stroke-width:0;fill:#78ba82;" />
    <path
       id="letter-i-rain-drop"
       style="fill:#7cb6df;stroke-width:0;"
       d="m 136,38.5 v -8 l -7.19,3.51 a 5,5 0 1 0 7.19,4.49 z" />
    <ellipse
       style="stroke-width:0;fill:#78BA82;"
       id="letter-o-full"
       cx="167"
       cy="75"
       rx="25"
       ry="25" />
    <path
       id="letter-o-rain-drop"
       d="m 177,80 v -20.3 l -17.97474,8.774878 a 12.499827,12.499827 0 1 0 17.97474,11.224844 z"
       style="fill:#3a91cf;stroke:#0D1821;stroke-width:0;stroke-linecap:butt;stroke-linejoin:miter;stroke-opacity:1" />
  </g>
</svg>
