<?xml version="1.0" encoding="UTF-8" standalone="no"?>
<svg
   xmlns:dc="http://purl.org/dc/elements/1.1/"
   xmlns:cc="http://creativecommons.org/ns#"
   xmlns:rdf="http://www.w3.org/1999/02/22-rdf-syntax-ns#"
   xmlns:svg="http://www.w3.org/2000/svg"
   xmlns="http://www.w3.org/2000/svg"
   xmlns:sodipodi="http://sodipodi.sourceforge.net/DTD/sodipodi-0.dtd"
   xmlns:inkscape="http://www.inkscape.org/namespaces/inkscape"
   sodipodi:docname="luvio-dark-border.svg"
   inkscape:version="1.1-dev (bc69992, 2020-04-15)"
   id="svg32"
   version="1.1"
   viewBox="0 0 213 120"
   height="120mm"
   width="213mm"
   inkscape:export-filename="/Users/seanny/engineering/projects/luvio/app/assets/images/luvio-dark-border.png"
   inkscape:export-xdpi="96"
   inkscape:export-ydpi="96">
  <defs
     id="defs26" />
  <sodipodi:namedview
     inkscape:window-maximized="0"
     inkscape:window-y="23"
     inkscape:window-x="0"
     inkscape:window-height="938"
     inkscape:window-width="1252"
     showgrid="false"
     inkscape:current-layer="layer1"
     inkscape:document-units="mm"
     inkscape:cy="560"
     inkscape:cx="321.42857"
     inkscape:zoom="0.35"
     inkscape:pageshadow="2"
     inkscape:pageopacity="0.0"
     borderopacity="1.0"
     bordercolor="#666666"
     pagecolor="#ffffff"
     id="base" />
  <metadata
     id="metadata29">
    <rdf:RDF>
      <cc:Work
         rdf:about="">
        <dc:format>image/svg+xml</dc:format>
        <dc:type
           rdf:resource="http://purl.org/dc/dcmitype/StillImage" />
        <dc:title />
      </cc:Work>
    </rdf:RDF>
  </metadata>
  <g
     id="layer1"
     inkscape:groupmode="layer"
     inkscape:label="Layer 1">
    <rect
       y="0"
       x="0"
       height="120"
       width="213"
       id="Background"
       style="fill:#0D1821;stroke-width:0" />
    <path
       d="M 10,110 H 20 V 10 H 10 Z"
       style="fill:#78ba82;stroke-width:0"
       id="letter-l" />
    <path
       id="letter-u"
       d="m 30,60 v 30 a 20,20 0 0 0 40,0 V 60 H 60 V 90 A 10,10 0 0 1 40,90 V 60 Z"
       style="fill:#78ba82;stroke-width:0" />
    <path
       style="fill:#78ba82;stroke-width:0"
       d="m 57.000137,50 v -8 l -7.19,3.51 a 5,5 0 1 0 7.19,4.49 z"
       id="letter-u-rain-drop" />
    <path
       d="m 77.5,60 20,50 h 10 l 20,-50 h -10 l -15,38 -15,-38 z"
       style="fill:#78ba82;stroke-width:0"
       id="letter-v" />
    <path
       style="fill:#78ba82;stroke-width:0"
       d="m 135,110 h 10 V 60 h -10 z"
       id="letter-i-base" />
    <path
       d="m 146,48.5 v -8 l -7.19,3.51 A 5,5 0 1 0 146,48.5 Z"
       style="fill:#78ba82;stroke-width:0"
       id="letter-i-rain-drop" />
    <circle
       cy="85"
       cx="177"
       id="letter-o-full"
       style="fill:#78ba82;stroke-width:0"
       r="25" />
    <path
       style="fill:#3a91cf;stroke-width:0"
       d="M 187,90 V 69.7 l -17.97474,8.774878 A 12.499827,12.499827 0 1 0 187,89.699722 Z"
       id="letter-o-rain-drop" />
  </g>
</svg>
